<mxfile host="65bd71144e">
    <diagram id="BfZDdQ8K7SHkP8j6GseF" name="Page-1">
        <mxGraphModel dx="1301" dy="786" grid="1" gridSize="10" guides="1" tooltips="1" connect="1" arrows="1" fold="1" page="1" pageScale="1" pageWidth="850" pageHeight="1100" math="0" shadow="0">
            <root>
                <mxCell id="0"/>
                <mxCell id="1" parent="0"/>
                <mxCell id="D1Z70N_V1F2x2BAWec8G-1" value="" style="rounded=1;whiteSpace=wrap;html=1;strokeWidth=2;fillColor=#D5E8D499;strokeColor=#82b366;" parent="1" vertex="1">
                    <mxGeometry x="128" y="426" width="60" height="60" as="geometry"/>
                </mxCell>
                <mxCell id="D1Z70N_V1F2x2BAWec8G-2" value="" style="rounded=1;whiteSpace=wrap;html=1;strokeWidth=2;fillColor=#D5E8D499;strokeColor=#82b366;" parent="1" vertex="1">
                    <mxGeometry x="1018" y="426" width="60" height="60" as="geometry"/>
                </mxCell>
                <mxCell id="D1Z70N_V1F2x2BAWec8G-3" value="" style="rounded=1;whiteSpace=wrap;html=1;strokeWidth=2;fillColor=#D5E8D499;strokeColor=#82b366;fontSize=12;" parent="1" vertex="1">
                    <mxGeometry x="202" y="426" width="60" height="60" as="geometry"/>
                </mxCell>
                <mxCell id="D1Z70N_V1F2x2BAWec8G-4" value="" style="rounded=1;whiteSpace=wrap;html=1;strokeWidth=2;fillColor=#D5E8D499;strokeColor=#82b366;fontSize=12;" parent="1" vertex="1">
                    <mxGeometry x="276" y="426" width="60" height="60" as="geometry"/>
                </mxCell>
                <mxCell id="D1Z70N_V1F2x2BAWec8G-5" value="" style="rounded=1;whiteSpace=wrap;html=1;strokeWidth=2;fillColor=#D5E8D499;strokeColor=#82b366;" parent="1" vertex="1">
                    <mxGeometry x="351" y="426" width="60" height="60" as="geometry"/>
                </mxCell>
                <mxCell id="D1Z70N_V1F2x2BAWec8G-6" value="" style="rounded=1;whiteSpace=wrap;html=1;strokeWidth=2;fillColor=#D5E8D499;strokeColor=#82b366;" parent="1" vertex="1">
                    <mxGeometry x="425" y="426" width="60" height="60" as="geometry"/>
                </mxCell>
                <mxCell id="D1Z70N_V1F2x2BAWec8G-7" value="" style="rounded=1;whiteSpace=wrap;html=1;strokeWidth=2;fillColor=#D5E8D499;strokeColor=#82b366;" parent="1" vertex="1">
                    <mxGeometry x="499" y="426" width="60" height="60" as="geometry"/>
                </mxCell>
                <mxCell id="D1Z70N_V1F2x2BAWec8G-8" value="" style="rounded=1;whiteSpace=wrap;html=1;strokeWidth=2;fillColor=#D5E8D499;strokeColor=#82b366;" parent="1" vertex="1">
                    <mxGeometry x="573" y="426" width="60" height="60" as="geometry"/>
                </mxCell>
                <mxCell id="D1Z70N_V1F2x2BAWec8G-9" value="" style="rounded=1;whiteSpace=wrap;html=1;strokeWidth=2;fillColor=#D5E8D499;strokeColor=#82b366;" parent="1" vertex="1">
                    <mxGeometry x="647" y="426" width="60" height="60" as="geometry"/>
                </mxCell>
                <mxCell id="D1Z70N_V1F2x2BAWec8G-10" value="" style="rounded=1;whiteSpace=wrap;html=1;strokeWidth=2;fillColor=#D5E8D499;strokeColor=#82b366;" parent="1" vertex="1">
                    <mxGeometry x="795" y="426" width="60" height="60" as="geometry"/>
                </mxCell>
                <mxCell id="D1Z70N_V1F2x2BAWec8G-11" value="" style="rounded=1;whiteSpace=wrap;html=1;strokeWidth=2;fillColor=#D5E8D499;strokeColor=#82b366;" parent="1" vertex="1">
                    <mxGeometry x="944" y="426" width="60" height="60" as="geometry"/>
                </mxCell>
                <mxCell id="D1Z70N_V1F2x2BAWec8G-12" value="" style="rounded=1;whiteSpace=wrap;html=1;strokeWidth=2;fillColor=#D5E8D499;strokeColor=#82b366;" parent="1" vertex="1">
                    <mxGeometry x="721" y="426" width="60" height="60" as="geometry"/>
                </mxCell>
                <mxCell id="D1Z70N_V1F2x2BAWec8G-13" value="" style="rounded=1;whiteSpace=wrap;html=1;strokeWidth=2;fillColor=#D5E8D499;strokeColor=#82b366;" parent="1" vertex="1">
                    <mxGeometry x="870" y="426" width="60" height="60" as="geometry"/>
                </mxCell>
                <mxCell id="D1Z70N_V1F2x2BAWec8G-14" value="" style="rounded=1;whiteSpace=wrap;html=1;strokeWidth=2;fillColor=#D5E8D499;strokeColor=#82b366;" parent="1" vertex="1">
                    <mxGeometry x="239" y="497" width="60" height="60" as="geometry"/>
                </mxCell>
                <mxCell id="D1Z70N_V1F2x2BAWec8G-15" value="" style="rounded=1;whiteSpace=wrap;html=1;strokeWidth=2;fillColor=#D5E8D499;strokeColor=#82b366;" parent="1" vertex="1">
                    <mxGeometry x="1129" y="497" width="60" height="60" as="geometry"/>
                </mxCell>
                <mxCell id="D1Z70N_V1F2x2BAWec8G-16" value="" style="rounded=1;whiteSpace=wrap;html=1;strokeWidth=2;fillColor=#D5E8D499;strokeColor=#82b366;fontSize=12;" parent="1" vertex="1">
                    <mxGeometry x="313" y="497" width="60" height="60" as="geometry"/>
                </mxCell>
                <mxCell id="D1Z70N_V1F2x2BAWec8G-17" value="" style="rounded=1;whiteSpace=wrap;html=1;strokeWidth=2;fillColor=#D5E8D499;strokeColor=#82b366;fontSize=12;" parent="1" vertex="1">
                    <mxGeometry x="387" y="497" width="60" height="60" as="geometry"/>
                </mxCell>
                <mxCell id="D1Z70N_V1F2x2BAWec8G-18" value="" style="rounded=1;whiteSpace=wrap;html=1;strokeWidth=2;fillColor=#D5E8D499;strokeColor=#82b366;fontSize=12;" parent="1" vertex="1">
                    <mxGeometry x="462" y="497" width="60" height="60" as="geometry"/>
                </mxCell>
                <mxCell id="D1Z70N_V1F2x2BAWec8G-19" value="" style="rounded=1;whiteSpace=wrap;html=1;strokeWidth=2;fillColor=#D5E8D499;strokeColor=#82b366;" parent="1" vertex="1">
                    <mxGeometry x="536" y="497" width="60" height="60" as="geometry"/>
                </mxCell>
                <mxCell id="D1Z70N_V1F2x2BAWec8G-20" value="" style="rounded=1;whiteSpace=wrap;html=1;strokeWidth=2;fillColor=#D5E8D499;strokeColor=#82b366;" parent="1" vertex="1">
                    <mxGeometry x="610" y="497" width="60" height="60" as="geometry"/>
                </mxCell>
                <mxCell id="D1Z70N_V1F2x2BAWec8G-21" value="" style="rounded=1;whiteSpace=wrap;html=1;strokeWidth=2;fillColor=#D5E8D499;strokeColor=#82b366;fontSize=12;" parent="1" vertex="1">
                    <mxGeometry x="684" y="497" width="60" height="60" as="geometry"/>
                </mxCell>
                <mxCell id="D1Z70N_V1F2x2BAWec8G-22" value="" style="rounded=1;whiteSpace=wrap;html=1;strokeWidth=2;fillColor=#D5E8D499;strokeColor=#82b366;fontSize=12;" parent="1" vertex="1">
                    <mxGeometry x="758" y="497" width="60" height="60" as="geometry"/>
                </mxCell>
                <mxCell id="D1Z70N_V1F2x2BAWec8G-23" value="" style="rounded=1;whiteSpace=wrap;html=1;strokeWidth=2;fillColor=#D5E8D499;strokeColor=#82b366;" parent="1" vertex="1">
                    <mxGeometry x="906" y="497" width="60" height="60" as="geometry"/>
                </mxCell>
                <mxCell id="D1Z70N_V1F2x2BAWec8G-24" value="" style="rounded=1;whiteSpace=wrap;html=1;strokeWidth=2;fillColor=#D5E8D499;strokeColor=#82b366;" parent="1" vertex="1">
                    <mxGeometry x="1055" y="497" width="60" height="60" as="geometry"/>
                </mxCell>
                <mxCell id="D1Z70N_V1F2x2BAWec8G-25" value="" style="rounded=1;whiteSpace=wrap;html=1;strokeWidth=2;fillColor=#D5E8D499;strokeColor=#82b366;fontSize=12;" parent="1" vertex="1">
                    <mxGeometry x="832" y="497" width="60" height="60" as="geometry"/>
                </mxCell>
                <mxCell id="D1Z70N_V1F2x2BAWec8G-26" value="" style="rounded=1;whiteSpace=wrap;html=1;strokeWidth=2;fillColor=#D5E8D499;strokeColor=#82b366;" parent="1" vertex="1">
                    <mxGeometry x="981" y="497" width="60" height="60" as="geometry"/>
                </mxCell>
                <mxCell id="D1Z70N_V1F2x2BAWec8G-27" value="" style="rounded=1;whiteSpace=wrap;html=1;strokeWidth=2;fillColor=#D5E8D499;strokeColor=#82b366;" parent="1" vertex="1">
                    <mxGeometry x="128" y="569" width="112" height="60" as="geometry"/>
                </mxCell>
                <mxCell id="D1Z70N_V1F2x2BAWec8G-28" value="" style="rounded=1;whiteSpace=wrap;html=1;strokeWidth=2;fillColor=#D5E8D499;strokeColor=#82b366;" parent="1" vertex="1">
                    <mxGeometry x="999" y="569" width="60" height="60" as="geometry"/>
                </mxCell>
                <mxCell id="D1Z70N_V1F2x2BAWec8G-29" value="A" style="rounded=1;whiteSpace=wrap;html=1;strokeWidth=2;fillColor=#D5E8D499;strokeColor=#82b366;fontSize=12;" parent="1" vertex="1">
                    <mxGeometry x="257" y="569" width="60" height="60" as="geometry"/>
                </mxCell>
                <mxCell id="D1Z70N_V1F2x2BAWec8G-30" value="S" style="rounded=1;whiteSpace=wrap;html=1;strokeWidth=2;fillColor=#D5E8D499;strokeColor=#82b366;fontSize=12;" parent="1" vertex="1">
                    <mxGeometry x="332" y="569" width="60" height="60" as="geometry"/>
                </mxCell>
                <mxCell id="D1Z70N_V1F2x2BAWec8G-31" value="D" style="rounded=1;whiteSpace=wrap;html=1;strokeWidth=2;fillColor=#D5E8D499;strokeColor=#82b366;fontSize=12;" parent="1" vertex="1">
                    <mxGeometry x="406" y="569" width="60" height="60" as="geometry"/>
                </mxCell>
                <mxCell id="D1Z70N_V1F2x2BAWec8G-32" value="" style="rounded=1;whiteSpace=wrap;html=1;strokeWidth=2;fillColor=#D5E8D499;strokeColor=#82b366;fontSize=12;" parent="1" vertex="1">
                    <mxGeometry x="480" y="569" width="60" height="60" as="geometry"/>
                </mxCell>
                <mxCell id="D1Z70N_V1F2x2BAWec8G-33" value="" style="rounded=1;whiteSpace=wrap;html=1;strokeWidth=2;fillColor=#D5E8D499;strokeColor=#82b366;fontSize=12;" parent="1" vertex="1">
                    <mxGeometry x="554" y="569" width="60" height="60" as="geometry"/>
                </mxCell>
                <mxCell id="D1Z70N_V1F2x2BAWec8G-34" value="" style="rounded=1;whiteSpace=wrap;html=1;strokeWidth=2;fillColor=#D5E8D499;strokeColor=#82b366;fontSize=12;" parent="1" vertex="1">
                    <mxGeometry x="628" y="569" width="60" height="60" as="geometry"/>
                </mxCell>
                <mxCell id="D1Z70N_V1F2x2BAWec8G-35" value="" style="rounded=1;whiteSpace=wrap;html=1;strokeWidth=2;fillColor=#D5E8D499;strokeColor=#82b366;fontSize=12;" parent="1" vertex="1">
                    <mxGeometry x="776" y="569" width="60" height="60" as="geometry"/>
                </mxCell>
                <mxCell id="D1Z70N_V1F2x2BAWec8G-36" value="'&lt;br&gt;跳转" style="rounded=1;whiteSpace=wrap;html=1;strokeWidth=2;fillColor=#dae8fc;strokeColor=#6c8ebf;fontSize=12;" parent="1" vertex="1">
                    <mxGeometry x="925" y="569" width="60" height="60" as="geometry"/>
                </mxCell>
                <mxCell id="D1Z70N_V1F2x2BAWec8G-37" value="" style="rounded=1;whiteSpace=wrap;html=1;strokeWidth=2;fillColor=#D5E8D499;strokeColor=#82b366;fontSize=12;" parent="1" vertex="1">
                    <mxGeometry x="702" y="569" width="60" height="60" as="geometry"/>
                </mxCell>
                <mxCell id="D1Z70N_V1F2x2BAWec8G-38" value="" style="rounded=1;whiteSpace=wrap;html=1;strokeWidth=2;fillColor=#D5E8D499;strokeColor=#82b366;fontSize=12;" parent="1" vertex="1">
                    <mxGeometry x="851" y="569" width="60" height="60" as="geometry"/>
                </mxCell>
                <mxCell id="D1Z70N_V1F2x2BAWec8G-39" value="" style="rounded=1;whiteSpace=wrap;html=1;strokeWidth=2;fillColor=#D5E8D499;strokeColor=#82b366;fontSize=12;" parent="1" vertex="1">
                    <mxGeometry x="295" y="641" width="60" height="60" as="geometry"/>
                </mxCell>
                <mxCell id="D1Z70N_V1F2x2BAWec8G-40" value="" style="rounded=1;whiteSpace=wrap;html=1;strokeWidth=2;fillColor=#D5E8D499;strokeColor=#82b366;fontSize=12;" parent="1" vertex="1">
                    <mxGeometry x="369" y="641" width="60" height="60" as="geometry"/>
                </mxCell>
                <mxCell id="D1Z70N_V1F2x2BAWec8G-41" value="" style="rounded=1;whiteSpace=wrap;html=1;strokeWidth=2;fillColor=#D5E8D499;strokeColor=#82b366;fontSize=12;" parent="1" vertex="1">
                    <mxGeometry x="443" y="641" width="60" height="60" as="geometry"/>
                </mxCell>
                <mxCell id="D1Z70N_V1F2x2BAWec8G-42" value="" style="rounded=1;whiteSpace=wrap;html=1;strokeWidth=2;fillColor=#D5E8D499;strokeColor=#82b366;" parent="1" vertex="1">
                    <mxGeometry x="518" y="641" width="60" height="60" as="geometry"/>
                </mxCell>
                <mxCell id="D1Z70N_V1F2x2BAWec8G-43" value="" style="rounded=1;whiteSpace=wrap;html=1;strokeWidth=2;fillColor=#D5E8D499;strokeColor=#82b366;" parent="1" vertex="1">
                    <mxGeometry x="592" y="641" width="60" height="60" as="geometry"/>
                </mxCell>
                <mxCell id="D1Z70N_V1F2x2BAWec8G-44" value="" style="rounded=1;whiteSpace=wrap;html=1;strokeWidth=2;fillColor=#D5E8D499;strokeColor=#82b366;fontSize=12;" parent="1" vertex="1">
                    <mxGeometry x="666" y="641" width="60" height="60" as="geometry"/>
                </mxCell>
                <mxCell id="D1Z70N_V1F2x2BAWec8G-45" value="M&lt;br style=&quot;font-size: 14px&quot;&gt;Mark" style="rounded=1;whiteSpace=wrap;html=1;strokeWidth=2;fillColor=#F8CECC77;strokeColor=#b85450;fontSize=12;" parent="1" vertex="1">
                    <mxGeometry x="740" y="641" width="60" height="60" as="geometry"/>
                </mxCell>
                <mxCell id="D1Z70N_V1F2x2BAWec8G-46" value="" style="rounded=1;whiteSpace=wrap;html=1;strokeWidth=2;fillColor=#D5E8D499;strokeColor=#82b366;fontSize=12;" parent="1" vertex="1">
                    <mxGeometry x="814" y="641" width="60" height="60" as="geometry"/>
                </mxCell>
                <mxCell id="D1Z70N_V1F2x2BAWec8G-47" value="" style="rounded=1;whiteSpace=wrap;html=1;strokeWidth=2;fillColor=#D5E8D499;strokeColor=#82b366;" parent="1" vertex="1">
                    <mxGeometry x="962" y="641" width="60" height="60" as="geometry"/>
                </mxCell>
                <mxCell id="D1Z70N_V1F2x2BAWec8G-48" value="" style="rounded=1;whiteSpace=wrap;html=1;strokeWidth=2;fillColor=#D5E8D499;strokeColor=#82b366;" parent="1" vertex="1">
                    <mxGeometry x="888" y="641" width="60" height="60" as="geometry"/>
                </mxCell>
                <mxCell id="D1Z70N_V1F2x2BAWec8G-49" value="" style="rounded=1;whiteSpace=wrap;html=1;strokeWidth=2;fillColor=#D5E8D499;strokeColor=#82b366;" parent="1" vertex="1">
                    <mxGeometry x="127" y="497" width="93" height="60" as="geometry"/>
                </mxCell>
                <mxCell id="D1Z70N_V1F2x2BAWec8G-50" value="" style="rounded=1;whiteSpace=wrap;html=1;strokeWidth=2;fillColor=#D5E8D499;strokeColor=#82b366;" parent="1" vertex="1">
                    <mxGeometry x="127" y="641" width="153" height="60" as="geometry"/>
                </mxCell>
                <mxCell id="D1Z70N_V1F2x2BAWec8G-51" value="" style="rounded=1;whiteSpace=wrap;html=1;strokeWidth=2;fillColor=#D5E8D499;strokeColor=#82b366;" parent="1" vertex="1">
                    <mxGeometry x="442" y="714" width="357" height="60" as="geometry"/>
                </mxCell>
                <mxCell id="D1Z70N_V1F2x2BAWec8G-52" value="" style="rounded=1;whiteSpace=wrap;html=1;strokeWidth=2;fillColor=#D5E8D499;strokeColor=#82b366;" parent="1" vertex="1">
                    <mxGeometry x="1077" y="569" width="112" height="60" as="geometry"/>
                </mxCell>
                <mxCell id="D1Z70N_V1F2x2BAWec8G-53" value="right_shift" style="rounded=1;whiteSpace=wrap;html=1;strokeWidth=2;fillColor=#D5E8D499;strokeColor=#82b366;" parent="1" vertex="1">
                    <mxGeometry x="1036" y="641" width="153" height="60" as="geometry"/>
                </mxCell>
                <mxCell id="D1Z70N_V1F2x2BAWec8G-54" value="" style="rounded=1;whiteSpace=wrap;html=1;strokeWidth=2;fillColor=#D5E8D499;strokeColor=#82b366;" parent="1" vertex="1">
                    <mxGeometry x="275" y="714" width="60" height="60" as="geometry"/>
                </mxCell>
                <mxCell id="D1Z70N_V1F2x2BAWec8G-55" value="" style="rounded=1;whiteSpace=wrap;html=1;strokeWidth=2;fillColor=#D5E8D499;strokeColor=#82b366;" parent="1" vertex="1">
                    <mxGeometry x="351" y="714" width="79" height="60" as="geometry"/>
                </mxCell>
                <mxCell id="D1Z70N_V1F2x2BAWec8G-56" value="" style="rounded=1;whiteSpace=wrap;html=1;strokeWidth=2;fillColor=#D5E8D499;strokeColor=#82b366;" parent="1" vertex="1">
                    <mxGeometry x="813" y="714" width="79" height="60" as="geometry"/>
                </mxCell>
                <mxCell id="D1Z70N_V1F2x2BAWec8G-57" value="" style="rounded=1;whiteSpace=wrap;html=1;strokeWidth=2;fillColor=#D5E8D499;strokeColor=#82b366;" parent="1" vertex="1">
                    <mxGeometry x="1090" y="426" width="100" height="60" as="geometry"/>
                </mxCell>
                <mxCell id="D1Z70N_V1F2x2BAWec8G-345" value="&lt;font&gt;&lt;span style=&quot;font-size: 64px&quot;&gt;Vim Mark&lt;/span&gt;&lt;br&gt;&lt;/font&gt;" style="text;html=1;strokeColor=none;fillColor=none;align=center;verticalAlign=middle;whiteSpace=wrap;rounded=0;opacity=10;" parent="1" vertex="1">
                    <mxGeometry x="121" y="340" width="309" height="30" as="geometry"/>
                </mxCell>
                <mxCell id="23" value="" style="group" vertex="1" connectable="0" parent="1">
                    <mxGeometry x="400" y="940" width="160" height="80" as="geometry"/>
                </mxCell>
                <mxCell id="19" value="'&lt;br&gt;跳转" style="rounded=1;whiteSpace=wrap;html=1;strokeWidth=2;fillColor=#dae8fc;strokeColor=#6c8ebf;fontSize=12;" vertex="1" parent="23">
                    <mxGeometry x="12" y="10" width="60" height="60" as="geometry"/>
                </mxCell>
                <mxCell id="20" value="A" style="rounded=1;whiteSpace=wrap;html=1;strokeWidth=2;fillColor=#D5E8D499;strokeColor=#82b366;fontSize=12;" vertex="1" parent="23">
                    <mxGeometry x="84.5" y="10" width="60" height="60" as="geometry"/>
                </mxCell>
                <mxCell id="22" value="" style="rounded=1;whiteSpace=wrap;html=1;dashed=1;gradientColor=none;fillColor=none;strokeWidth=2;" vertex="1" parent="23">
                    <mxGeometry width="160" height="80" as="geometry"/>
                </mxCell>
                <mxCell id="24" value="" style="group" vertex="1" connectable="0" parent="1">
                    <mxGeometry x="130" y="940" width="160" height="80" as="geometry"/>
                </mxCell>
                <mxCell id="17" value="M&lt;br style=&quot;font-size: 14px&quot;&gt;Mark" style="rounded=1;whiteSpace=wrap;html=1;strokeWidth=2;fillColor=#F8CECC77;strokeColor=#b85450;fontSize=12;" vertex="1" parent="24">
                    <mxGeometry x="12" y="10" width="60" height="60" as="geometry"/>
                </mxCell>
                <mxCell id="18" value="A" style="rounded=1;whiteSpace=wrap;html=1;strokeWidth=2;fillColor=#D5E8D499;strokeColor=#82b366;fontSize=12;" vertex="1" parent="24">
                    <mxGeometry x="85" y="10" width="60" height="60" as="geometry"/>
                </mxCell>
                <mxCell id="21" value="" style="rounded=1;whiteSpace=wrap;html=1;dashed=1;gradientColor=none;fillColor=none;strokeWidth=2;" vertex="1" parent="24">
                    <mxGeometry width="160" height="80" as="geometry"/>
                </mxCell>
                <mxCell id="25" value="&lt;font style=&quot;font-size: 19px&quot;&gt;Normal Mode&lt;/font&gt;" style="text;html=1;strokeColor=none;fillColor=none;align=center;verticalAlign=middle;whiteSpace=wrap;rounded=0;dashed=1;" vertex="1" parent="1">
                    <mxGeometry y="955" width="102" height="50" as="geometry"/>
                </mxCell>
            </root>
        </mxGraphModel>
    </diagram>
</mxfile>